<svg width="884" height="916" viewBox="0 0 884 916" fill="none" xmlns="http://www.w3.org/2000/svg">
<path fill-rule="evenodd" clip-rule="evenodd" d="M34.5255 256.014C109.032 104.372 265.019 0 445.383 0C651.659 0 826.051 136.516 883.138 324.13C842.864 349.29 799.814 362.455 754.052 372.203C669.114 390.297 598.571 347.186 533.264 261.059C470.217 174.939 353.69 156.645 290.298 188.686C264.785 201.134 243.284 220.68 222.817 239.286C190.614 268.56 160.971 295.508 122.29 288.827C91.5861 283.704 61.5983 269.975 34.5255 256.014Z" fill="black"/>
<path fill-rule="evenodd" clip-rule="evenodd" d="M843.166 683.807C764.472 822.111 615.753 915.383 445.25 915.383C228.929 915.383 47.6745 765.249 0 563.495C23.0701 554.835 46.946 548.513 71.6138 543.183C156.498 524.841 227.167 567.746 292.725 653.682C356.023 739.617 472.604 757.57 535.902 725.344C561.378 712.821 582.822 693.213 603.235 674.547C635.352 645.179 664.916 618.145 703.617 624.713C741.927 630.99 779.164 650.657 811.013 667.479C822.498 673.545 833.284 679.242 843.166 683.807Z" fill="black"/>
<path d="M303.176 255.482C274.081 261.648 253.272 271.86 237.471 287.66C223.406 301.726 217.432 312.131 212.615 330.821C206.45 355.099 208.376 378.414 218.781 400.572C225.14 414.638 245.564 433.714 262.713 441.999C278.706 449.706 288.533 452.597 325.335 459.919C362.523 467.433 379.286 476.297 384.296 491.133C390.462 510.209 369.652 527.165 336.896 529.67C312.04 531.597 290.652 524.853 264.254 506.741C249.032 496.336 242.096 494.409 230.92 497.492C209.34 503.465 198.935 528.128 208.954 548.938C215.506 562.233 242.674 582.08 265.796 589.98C296.625 600.77 340.557 603.66 367.725 596.724C398.747 589.016 428.613 569.748 442.486 548.938C467.535 511.365 462.333 454.716 431.503 426.777C413.584 410.592 393.93 403.077 332.079 388.626C293.735 379.762 281.981 371.67 281.981 354.328C281.981 342.575 286.606 336.023 298.937 330.243C308.379 325.811 312.425 325.04 329.189 325.04C352.311 325.04 368.496 329.665 391.233 342.767C399.518 347.584 409.73 351.823 414.162 352.401C431.696 354.521 451.735 335.638 451.542 316.948C451.35 295.174 422.255 272.053 379.286 259.528C357.898 253.17 322.83 251.435 303.176 255.482ZM371.579 276.099C391.425 280.723 415.896 292.862 425.145 302.496C434.394 311.938 435.55 321.379 428.42 328.894C421.869 335.831 414.162 335.06 398.362 326.004C391.04 321.957 376.781 315.792 366.762 312.323C351.347 307.314 345.759 306.35 331.116 306.35C301.442 306.735 280.44 315.214 270.42 331.206C259.052 349.126 261.172 368.972 276.008 383.809C287.184 394.984 301.057 400.187 346.916 410.784C386.416 419.84 404.72 426.97 418.208 438.723C433.238 451.826 438.44 464.158 439.596 488.628C440.174 505.006 439.789 510.016 436.128 520.421C427.072 547.589 408.959 563.967 375.433 575.914C360.789 580.924 358.284 581.309 327.262 581.116C297.203 581.116 293.35 580.731 279.091 575.914C260.786 569.941 243.637 559.921 232.462 548.938C222.828 539.689 220.515 531.597 224.947 522.926C230.728 511.558 239.976 511.943 258.667 524.467C275.815 535.45 286.606 540.46 302.213 544.699C315.123 547.975 342.291 548.553 355.008 545.47C374.662 541.038 395.279 526.587 400.674 513.484C406.84 498.841 402.601 480.728 390.269 468.011C377.359 454.716 364.45 449.706 316.857 439.88C271.962 430.438 248.647 417.143 235.545 393.057C228.993 381.111 228.993 380.533 228.993 356.833C228.993 334.482 229.379 331.977 234.389 321.957C241.325 307.506 251.345 296.716 265.411 288.623C295.276 270.896 332.079 266.465 371.579 276.099Z" fill="black"/>
<path d="M644.804 418.684C635.17 423.501 635.94 421.767 608.579 498.455C597.211 530.248 587.191 557.031 586.421 557.802C585.65 558.765 578.713 543.543 571.006 524.082C543.838 456.258 543.067 455.101 524.955 455.101C506.457 455.101 504.916 457.414 483.335 511.943C473.123 537.955 464.067 559.15 463.103 559.15C462.333 559.15 460.984 557.031 460.406 554.333C458.864 547.975 456.552 548.167 451.542 555.297L447.303 561.27L454.625 582.272C458.672 594.026 462.525 603.467 463.103 603.467C463.682 603.467 466.572 596.724 469.655 588.438C481.601 556.26 509.925 484.582 513.394 477.838C517.055 470.516 523.799 467.048 529.386 469.167C533.433 470.709 535.552 475.333 561.372 540.075C574.282 572.253 585.265 599.036 585.65 599.421C587.384 601.155 589.311 596.531 605.689 550.094C638.06 458.762 646.152 436.989 649.428 433.521C654.438 427.933 665.421 429.475 669.274 436.219C671.972 441.421 671.587 443.348 660.411 476.682C636.326 548.36 603.569 637.958 598.752 645.28C595.284 650.675 586.613 651.06 580.833 646.243C578.521 644.316 567.73 619.267 553.087 581.309C539.791 547.397 527.652 516.182 525.726 511.943C521.679 502.694 525.34 495.18 497.594 572.638C473.123 640.848 470.233 647.399 464.067 648.941C452.506 651.831 447.882 645.087 434.972 607.899C430.925 595.953 426.879 586.126 426.301 586.126C425.723 586.126 422.833 588.246 420.135 590.75L415.125 595.567L418.594 605.78C424.567 622.736 436.513 652.409 438.633 655.107C445.569 663.97 464.645 666.089 475.435 659.538C483.335 654.529 486.804 646.821 507.806 587.667C515.513 565.509 522.45 547.589 523.028 547.589C523.606 547.589 532.084 568.206 541.911 593.255C564.647 651.253 566.574 655.107 573.704 659.538C585.843 667.053 607.423 662.621 613.396 651.446C616.094 646.628 666.384 506.162 677.174 473.599C687.001 443.733 687.772 438.531 683.148 430.053C678.909 422.153 666.962 414.638 658.677 414.638C655.594 414.638 649.235 416.372 644.804 418.684Z" fill="black"/>
</svg>
